<?xml version="1.0" encoding="utf-8"?>
<!-- Generator: Adobe Illustrator 21.0.0, SVG Export Plug-In . SVG Version: 6.00 Build 0)  -->
<svg version="1.1" id="Capa_1" xmlns="http://www.w3.org/2000/svg" xmlns:xlink="http://www.w3.org/1999/xlink" x="0px" y="0px"
	 viewBox="0 0 215 70" style="enable-background:new 0 0 215 70;" xml:space="preserve">
<style type="text/css">
	.st0{fill-rule:evenodd;clip-rule:evenodd;fill:#5E1E32;}
	.st1{fill-rule:evenodd;clip-rule:evenodd;fill:#262424;}
	.st2{fill-rule:evenodd;clip-rule:evenodd;fill:#487F65;}
	.st3{fill-rule:evenodd;clip-rule:evenodd;fill:#B0262B;}
	.st4{fill-rule:evenodd;clip-rule:evenodd;fill:#FFFFFF;}
</style>
<g>
	<path class="st4" d="M61.6,27.2c0.7,4.7-2.2,10.5-7.4,14.2c-6.4,4.6-13.9,4.3-16.8-0.6c-0.9-1.5-1.2-3.2-1.1-5l-3.4,9h35.5
		l-6.6-17.2L61.6,27.2z"/>
	<path class="st4" d="M60.2,23.7l-4-10.3H45l-5.5,14.4c1.1-1.5,2.6-2.9,4.3-4.1c6.4-4.6,13.9-4.3,16.8,0.7L60.2,23.7z"/>
	<path class="st4" d="M66.8,44.7h8.9V34.4c0-2.6,0.7-4.2,3.5-4.2c2.5,0,3.1,1.8,3.1,3.8v10.7h8.9V32.6c0-5.5-2.8-8.7-8.7-8.7
		c-3.4,0-5.6,1.3-7.6,3.7v-3.2h-8.2V44.7z"/>
	<path class="st4" d="M115,44.7v-0.4c-1.2-0.8-1.2-1.4-1.2-2.6v-9.4c0-4.8-0.6-8.3-11.3-8.3c-8.9,0-12.3,2.5-12.3,6.8h8.6
		c0.2-1.7,1.9-2,3.1-2c0.9,0,2.9,0.2,2.9,1.7c0,3.8-16-0.4-16,8.8c0,4.2,3.8,6.1,8,6.1c3.4,0,5.9-0.6,8.5-2.7l0.4,2.2H115z
		 M100.9,40.8c-1.8,0-2.8-0.7-2.8-1.7c0-2.6,3.9-2,6.8-3.3C105.1,38.6,104,40.8,100.9,40.8"/>
	<path class="st4" d="M137.8,32.2c-0.6-6-6.3-8.3-12.3-8.3c-7.4,0-12.8,4-12.8,10.9c0,6.8,5.6,10.5,12.8,10.5
		c6.2,0,11.7-2.3,12.5-8.4h-9c-0.3,1.6-1.2,3-3.5,3c-2.6,0-3.9-2-3.9-5c0-2.4,0.6-5.5,3.9-5.5c1,0,1.8,0.3,2.3,0.8
		c0.6,0.5,0.9,1.2,0.9,2.1H137.8z"/>
	<path class="st4" d="M161.6,44.7v-0.4c-1.2-0.8-1.2-1.4-1.2-2.6v-9.4c0-4.8-0.6-8.3-11.3-8.3c-8.9,0-12.3,2.5-12.3,6.8h8.6
		c0.2-1.7,1.9-2,3.1-2c0.9,0,2.9,0.2,2.9,1.7c0,3.8-16-0.4-16,8.8c0,4.2,3.8,6.1,8,6.1c3.3,0,5.9-0.6,8.5-2.7l0.4,2.2H161.6z
		 M147.5,40.8c-1.8,0-2.8-0.7-2.8-1.7c0-2.6,3.9-2,6.8-3.3C151.6,38.6,150.6,40.8,147.5,40.8"/>
	<path class="st4" d="M171.4,24.6c-0.2-3.2,0.8-3.2,3.7-3.2v-5h-3.8c-5.7,0-8.8,1.2-8.8,8.3h-3v4.6h3v15.5h8.9V29.2h3.7v-4.6H171.4z
		"/>
	<path class="st4" d="M181.1,22h5.9l7.4-5.7h-9L181.1,22z M181.4,32.4c0-2.2,1.5-3.5,4.2-3.5c2.1,0,3.9,1.7,3.9,3.5H181.4z
		 M198.4,36.4c0.1-7.3-4.9-12.5-13.2-12.5c-7.2,0-12.8,4.2-12.8,10.9c0,6.8,5.6,10.5,12.8,10.5c5.2,0,10.9-1.7,12.5-6.7h-8.5
		c-0.6,1.2-1.9,1.8-3.4,1.8c-2.4,0-4.4-1.6-4.4-4H198.4z"/>
	<path class="st4" d="M35.3,54.3l-1.1-2.4l-1.1,2.4H35.3z M33.8,51.1h1.1l2.6,5.4h-1l-0.7-1.6h-2.8l-0.8,1.6h-1L33.8,51.1z"/>
	<path class="st4" d="M39,54.8c0,0.3,0.1,0.6,0.3,0.7c0.3,0.4,0.9,0.5,1.7,0.5c0.4,0,0.7,0,1-0.1c0.6-0.2,0.9-0.4,0.9-0.8
		c0-0.3-0.1-0.5-0.4-0.6c-0.2-0.1-0.6-0.2-1.1-0.3l-1-0.2c-0.6-0.1-1.1-0.2-1.3-0.4c-0.4-0.2-0.7-0.6-0.7-1c0-0.5,0.2-0.9,0.7-1.2
		c0.4-0.3,1.1-0.5,1.9-0.5c0.7,0,1.4,0.1,1.9,0.4c0.5,0.3,0.8,0.7,0.8,1.3h-0.9c0-0.3-0.2-0.5-0.3-0.7c-0.3-0.3-0.8-0.4-1.5-0.4
		c-0.6,0-1,0.1-1.2,0.3c-0.2,0.2-0.4,0.4-0.4,0.6c0,0.3,0.1,0.5,0.4,0.6c0.2,0.1,0.6,0.2,1.3,0.3l1,0.2c0.5,0.1,0.8,0.2,1.1,0.3
		c0.4,0.3,0.7,0.6,0.7,1.1c0,0.6-0.3,1-0.9,1.3c-0.6,0.3-1.2,0.4-2,0.4c-0.9,0-1.6-0.2-2.1-0.5c-0.5-0.3-0.7-0.8-0.7-1.4H39z"/>
	<path class="st4" d="M50.8,51.9c0.5,0.5,0.7,1.1,0.7,1.8c0,0.8-0.3,1.5-0.8,2c-0.6,0.6-1.5,0.9-2.7,0.9c-1.1,0-1.9-0.3-2.6-0.8
		c-0.6-0.5-0.8-1.2-0.8-2c0-0.7,0.2-1.4,0.7-1.9c0.6-0.7,1.5-1,2.7-1C49.3,51,50.2,51.3,50.8,51.9 M50,55.3c0.4-0.5,0.6-1,0.6-1.6
		c0-0.6-0.2-1.1-0.7-1.5c-0.4-0.4-1-0.6-1.8-0.6c-0.7,0-1.3,0.2-1.8,0.6c-0.5,0.4-0.7,0.9-0.7,1.7c0,0.6,0.2,1.1,0.6,1.5
		c0.4,0.4,1,0.6,1.9,0.6C49,56,49.6,55.8,50,55.3"/>
	<path class="st4" d="M57.8,51.5c0.5,0.4,0.8,0.8,0.8,1.2h-0.9c-0.1-0.3-0.3-0.6-0.6-0.8c-0.3-0.2-0.8-0.3-1.3-0.3
		c-0.7,0-1.3,0.2-1.7,0.6c-0.4,0.4-0.6,0.9-0.6,1.7c0,0.6,0.2,1.1,0.6,1.5c0.4,0.4,1,0.6,1.7,0.6c0.7,0,1.2-0.2,1.6-0.6
		c0.2-0.2,0.3-0.5,0.4-0.9h0.9c-0.1,0.6-0.4,1-0.8,1.4c-0.6,0.5-1.3,0.7-2.3,0.7c-0.8,0-1.5-0.2-2.1-0.6c-0.7-0.5-1.1-1.3-1.1-2.3
		c0-0.8,0.3-1.4,0.8-2c0.6-0.6,1.4-0.8,2.5-0.8C56.6,51,57.3,51.2,57.8,51.5"/>
	<rect x="60.1" y="51.1" class="st4" width="1" height="5.4"/>
	<path class="st4" d="M66.4,54.3l-1.1-2.4l-1.1,2.4H66.4z M64.8,51.1h1.1l2.6,5.4h-1l-0.7-1.6h-2.8l-0.8,1.6h-1L64.8,51.1z"/>
	<path class="st4" d="M74.4,51.5c0.5,0.4,0.8,0.8,0.8,1.2h-0.9c-0.1-0.3-0.3-0.6-0.6-0.8c-0.3-0.2-0.8-0.3-1.3-0.3
		c-0.7,0-1.3,0.2-1.7,0.6c-0.4,0.4-0.6,0.9-0.6,1.7c0,0.6,0.2,1.1,0.6,1.5c0.4,0.4,1,0.6,1.7,0.6c0.7,0,1.2-0.2,1.6-0.6
		c0.2-0.2,0.3-0.5,0.4-0.9h0.9c-0.1,0.6-0.4,1-0.8,1.4c-0.6,0.5-1.3,0.7-2.3,0.7c-0.8,0-1.5-0.2-2.1-0.6c-0.7-0.5-1.1-1.3-1.1-2.3
		c0-0.8,0.3-1.4,0.8-2c0.6-0.6,1.4-0.8,2.5-0.8C73.3,51,73.9,51.2,74.4,51.5"/>
	<rect x="76.8" y="51.1" class="st4" width="1" height="5.4"/>
	<path class="st4" d="M85.2,51.9c0.5,0.5,0.7,1.1,0.7,1.8c0,0.8-0.3,1.5-0.8,2c-0.6,0.6-1.5,0.9-2.7,0.9c-1.1,0-1.9-0.3-2.6-0.8
		c-0.6-0.5-0.8-1.2-0.8-2c0-0.7,0.2-1.4,0.7-1.9c0.6-0.7,1.5-1,2.7-1C83.7,51,84.6,51.3,85.2,51.9 M84.4,55.3c0.4-0.5,0.6-1,0.6-1.6
		c0-0.6-0.2-1.1-0.7-1.5c-0.4-0.4-1-0.6-1.8-0.6c-0.7,0-1.3,0.2-1.8,0.6c-0.5,0.4-0.7,0.9-0.7,1.7c0,0.6,0.2,1.1,0.6,1.5
		c0.4,0.4,1,0.6,1.9,0.6C83.4,56,84,55.8,84.4,55.3"/>
	<polygon class="st4" points="87.1,51.1 88.3,51.1 91.8,55.5 91.8,51.1 92.7,51.1 92.7,56.5 91.7,56.5 88.1,52.2 88.1,56.5 
		87.1,56.5 	"/>
	<polygon class="st4" points="97,51.1 98.1,51.1 101.7,55.5 101.7,51.1 102.6,51.1 102.6,56.5 101.5,56.5 97.9,52.2 97.9,56.5 
		97,56.5 	"/>
	<path class="st4" d="M107.8,54.3l-1.1-2.4l-1.1,2.4H107.8z M106.2,51.1h1.1l2.6,5.4h-1l-0.7-1.6h-2.8l-0.8,1.6h-1L106.2,51.1z"/>
	<path class="st4" d="M115.9,51.5c0.5,0.4,0.8,0.8,0.8,1.2h-0.9c-0.1-0.3-0.3-0.6-0.6-0.8c-0.3-0.2-0.8-0.3-1.3-0.3
		c-0.7,0-1.3,0.2-1.7,0.6c-0.4,0.4-0.6,0.9-0.6,1.7c0,0.6,0.2,1.1,0.6,1.5c0.4,0.4,1,0.6,1.7,0.6c0.7,0,1.2-0.2,1.6-0.6
		c0.2-0.2,0.3-0.5,0.4-0.9h0.9c-0.1,0.6-0.4,1-0.8,1.4c-0.6,0.5-1.3,0.7-2.3,0.7c-0.8,0-1.5-0.2-2.1-0.6c-0.7-0.5-1.1-1.3-1.1-2.3
		c0-0.8,0.3-1.4,0.8-2c0.6-0.6,1.4-0.8,2.5-0.8C114.7,51,115.4,51.2,115.9,51.5"/>
	<rect x="118.2" y="51.1" class="st4" width="1" height="5.4"/>
	<path class="st4" d="M126.6,51.9c0.5,0.5,0.7,1.1,0.7,1.8c0,0.8-0.3,1.5-0.8,2c-0.6,0.6-1.5,0.9-2.7,0.9c-1.1,0-1.9-0.3-2.6-0.8
		c-0.6-0.5-0.8-1.2-0.8-2c0-0.7,0.2-1.4,0.7-1.9c0.6-0.7,1.5-1,2.7-1C125.1,51,126,51.3,126.6,51.9 M125.8,55.3
		c0.4-0.5,0.6-1,0.6-1.6c0-0.6-0.2-1.1-0.7-1.5c-0.4-0.4-1-0.6-1.8-0.6c-0.7,0-1.3,0.2-1.8,0.6c-0.5,0.4-0.7,0.9-0.7,1.7
		c0,0.6,0.2,1.1,0.6,1.5c0.4,0.4,1,0.6,1.9,0.6C124.8,56,125.4,55.8,125.8,55.3"/>
	<polygon class="st4" points="128.6,51.1 129.7,51.1 133.3,55.5 133.3,51.1 134.2,51.1 134.2,56.5 133.1,56.5 129.5,52.2 
		129.5,56.5 128.6,56.5 	"/>
	<path class="st4" d="M139.4,54.3l-1.1-2.4l-1.1,2.4H139.4z M137.8,51.1h1.1l2.6,5.4h-1l-0.7-1.6h-2.8l-0.8,1.6h-1L137.8,51.1z"/>
	<polygon class="st4" points="142.4,51.1 143.4,51.1 143.4,55.9 146.9,55.9 146.9,56.5 142.4,56.5 	"/>
	<path class="st4" d="M153,55.9c0.3,0,0.6,0,0.8-0.1c0.4-0.1,0.7-0.3,0.9-0.5c0.2-0.2,0.3-0.5,0.4-0.8c0-0.2,0.1-0.4,0.1-0.6
		c0-0.7-0.2-1.2-0.5-1.6c-0.3-0.4-0.9-0.6-1.7-0.6h-1.7v4.1H153z M150.3,51.1h2.9c1,0,1.7,0.3,2.3,0.8c0.5,0.5,0.7,1.1,0.7,1.8
		c0,0.6-0.1,1.1-0.4,1.6c-0.5,0.8-1.3,1.2-2.6,1.2h-2.8V51.1z"/>
	<polygon class="st4" points="157.5,51.1 162.7,51.1 162.7,51.8 158.5,51.8 158.5,53.4 162.4,53.4 162.4,54.1 158.5,54.1 
		158.5,55.9 162.7,55.9 162.7,56.5 157.5,56.5 	"/>
	<polygon class="st4" points="164.1,51.1 165,51.1 165,55.9 168.6,55.9 168.6,56.5 164.1,56.5 	"/>
	<path class="st4" d="M177,51.5c0.5,0.4,0.8,0.8,0.8,1.2h-0.9c-0.1-0.3-0.3-0.6-0.6-0.8c-0.3-0.2-0.8-0.3-1.3-0.3
		c-0.7,0-1.3,0.2-1.7,0.6c-0.4,0.4-0.6,0.9-0.6,1.7c0,0.6,0.2,1.1,0.6,1.5c0.4,0.4,1,0.6,1.7,0.6c0.7,0,1.2-0.2,1.6-0.6
		c0.2-0.2,0.3-0.5,0.4-0.9h0.9c-0.1,0.6-0.4,1-0.8,1.4c-0.6,0.5-1.3,0.7-2.3,0.7c-0.8,0-1.5-0.2-2.1-0.6c-0.7-0.5-1.1-1.3-1.1-2.3
		c0-0.8,0.3-1.4,0.8-2c0.6-0.6,1.4-0.8,2.5-0.8C175.8,51,176.5,51.2,177,51.5"/>
	<path class="st4" d="M182.7,54.3l-1.1-2.4l-1.1,2.4H182.7z M181.2,51.1h1.1l2.6,5.4h-1l-0.7-1.6h-2.8l-0.8,1.6h-1L181.2,51.1z"/>
	<polygon class="st4" points="185.9,51.1 190.8,51.1 190.8,51.8 186.8,51.8 186.8,53.4 190.3,53.4 190.3,54.1 186.8,54.1 
		186.8,56.5 185.9,56.5 	"/>
	<polygon class="st4" points="192,51.1 197.1,51.1 197.1,51.8 192.9,51.8 192.9,53.4 196.8,53.4 196.8,54.1 192.9,54.1 192.9,55.9 
		197.2,55.9 197.2,56.5 192,56.5 	"/>
	<path class="st4" d="M197.9,22.2c-0.5,0.5-0.8,1.1-0.8,1.9c0,0.7,0.3,1.4,0.8,1.9c0.5,0.5,1.1,0.8,1.9,0.8c0.7,0,1.4-0.3,1.9-0.8
		c0.5-0.5,0.8-1.2,0.8-1.9c0-0.7-0.3-1.3-0.8-1.9c-0.5-0.5-1.1-0.8-1.9-0.8C199,21.4,198.4,21.6,197.9,22.2 M202,26.3
		c-0.6,0.6-1.4,0.9-2.3,0.9c-0.9,0-1.7-0.3-2.3-0.9c-0.6-0.6-0.9-1.4-0.9-2.3c0-0.9,0.3-1.7,1-2.4c0.6-0.6,1.4-0.9,2.2-0.9
		c0.9,0,1.6,0.3,2.3,0.9c0.6,0.6,0.9,1.4,0.9,2.3C203,24.9,202.7,25.7,202,26.3 M200.1,23c-0.1,0-0.3-0.1-0.5-0.1h-0.2v1h0.4
		c0.2,0,0.4,0,0.5-0.1c0.1-0.1,0.2-0.2,0.2-0.4C200.4,23.2,200.3,23,200.1,23 M198.4,25.8v-3.6c0.2,0,0.6,0,1,0c0.4,0,0.7,0,0.7,0
		c0.3,0,0.5,0.1,0.7,0.2c0.3,0.2,0.5,0.5,0.5,0.9c0,0.3-0.1,0.5-0.3,0.7c-0.2,0.1-0.4,0.2-0.6,0.2c0.2,0,0.4,0.1,0.5,0.2
		c0.2,0.2,0.3,0.4,0.3,0.8v0.3c0,0,0,0.1,0,0.1c0,0,0,0.1,0,0.1l0,0.1h-0.9c0-0.1,0-0.3-0.1-0.5c0-0.2,0-0.4-0.1-0.4
		c0-0.1-0.1-0.2-0.3-0.3c-0.1,0-0.2,0-0.3-0.1l-0.2,0h-0.2v1.3H198.4z"/>
	<path class="st4" d="M38.7,41.3c8.3-4,12.8-16.1,22.5-17C55.1,25.8,48.1,40.9,38.7,41.3"/>
	<path class="st4" d="M25.2,38.7c11.1,0.4,23.2-14.6,36-14.5C49.4,25.8,35.8,41,25.2,38.7"/>
	<path class="st4" d="M12,37.3c16.7-0.3,38-16.2,49.2-13C48.8,23.1,25,40,12,37.3"/>
	<polygon class="st4" points="68.1,21.6 68.8,22 68.1,22.3 	"/>
	<path class="st4" d="M63.5,24.8c-1.3,0.1-2.3-0.1-2.4-0.7c-0.2-0.7,1.2-1.1,2.9-1.6c-0.9,0-1.7-0.2-2-0.8c-0.4-0.1-0.7-0.1-0.9-0.2
		c0.2-0.3,0.5-0.4,0.8-0.6c-0.6,0-2-0.9-2.1-1.6c0,0,3.2,1.5,3.6,1.6c0.3,0.1,0.5,0,0.7,0.1c0.5,0.1,0.8,0.7,1.1,1.3
		c0.4-0.1,0.7-0.2,1-0.2c0-0.6,0.5-1.1,1.1-1.1c0.6,0,1.1,0.5,1.1,1.1S67.7,23,67.1,23c0,0.2-0.1,0.3-0.3,0.5
		c-0.3-0.1-0.7-0.2-1.1-0.2c-1.3,0-2.4,0.6-2.4,1.3L63.5,24.8z"/>
	<path class="st4" d="M63.7,24.6c0-0.6,0.9-1.1,2-1.1c0.3,0,0.7,0.1,0.9,0.2c-0.2,0.3-0.8,0.7-1.7,0.9c-0.4,0.1-0.8,0.2-1.2,0.2
		L63.7,24.6z"/>
</g>
</svg>
