<?xml version="1.0" encoding="utf-8"?>
<!-- Generator: Adobe Illustrator 21.0.0, SVG Export Plug-In . SVG Version: 6.00 Build 0)  -->
<svg version="1.1" id="Capa_1" xmlns="http://www.w3.org/2000/svg" xmlns:xlink="http://www.w3.org/1999/xlink" x="0px" y="0px"
	 viewBox="0 0 191.5 43.5" style="enable-background:new 0 0 191.5 43.5;" xml:space="preserve">
<style type="text/css">
	.st0{fill:#5E1E32;}
	.st1{fill:#262424;}
	.st2{fill:#487F65;}
	.st3{fill:#B0262B;}
</style>
<g>
	<path class="st0" d="M49.8,14c0.7,4.7-2.2,10.5-7.4,14.2c-6.4,4.6-14,4.3-16.9-0.7c-0.9-1.5-1.2-3.2-1.1-5l-3.4,9h35.6l-6.7-17.3
		L49.8,14z"/>
	<path class="st0" d="M48.4,10.4L44.4,0H33.1l-5.5,14.4c1.2-1.5,2.6-2.9,4.3-4.1c6.4-4.6,14-4.3,16.9,0.6L48.4,10.4z"/>
	<path class="st0" d="M54.9,31.5h9V21.2c0-2.6,0.7-4.2,3.5-4.2c2.5,0,3.1,1.8,3.1,3.8v10.7h9V19.4c0-5.6-2.8-8.7-8.7-8.7
		c-3.4,0-5.6,1.3-7.6,3.7v-3.2H55v20.3H54.9z"/>
	<path class="st0" d="M103.3,31.5v-0.4c-1.2-0.8-1.2-1.4-1.2-2.6V19c0-4.8-0.6-8.4-11.3-8.4c-8.9,0-12.3,2.5-12.3,6.8h8.6
		c0.2-1.7,1.9-2,3.1-2c0.9,0,2.9,0.2,2.9,1.7c0,3.8-16.1-0.4-16.1,8.8c0,4.2,3.8,6.1,8.1,6.1c3.4,0,5.9-0.6,8.5-2.7l0.4,2.2H103.3z
		 M89.2,27.6c-1.8,0-2.8-0.7-2.8-1.7c0-2.6,3.9-2,6.8-3.3C93.4,25.4,92.3,27.6,89.2,27.6"/>
	<path class="st0" d="M126.2,19c-0.6-6-6.3-8.3-12.4-8.3c-7.5,0-12.9,4-12.9,10.9c0,6.8,5.6,10.5,12.9,10.5c6.2,0,11.8-2.3,12.5-8.4
		h-9c-0.3,1.6-1.2,3-3.5,3c-2.6,0-3.9-2-3.9-5.1c0-2.4,0.6-5.5,3.9-5.5c1,0,1.8,0.3,2.3,0.8c0.6,0.5,0.9,1.2,0.9,2.1H126.2z"/>
	<path class="st0" d="M150,31.5v-0.4c-1.2-0.8-1.2-1.4-1.2-2.6V19c0-4.8-0.6-8.4-11.3-8.4c-8.9,0-12.3,2.5-12.3,6.8h8.6
		c0.2-1.7,1.9-2,3.1-2c1,0,2.9,0.2,2.9,1.7c0,3.8-16.1-0.4-16.1,8.8c0,4.2,3.8,6.1,8.1,6.1c3.4,0,5.9-0.6,8.5-2.7l0.4,2.2H150z
		 M135.9,27.6c-1.8,0-2.8-0.7-2.8-1.7c0-2.6,3.9-2,6.8-3.3C140.1,25.4,139,27.6,135.9,27.6"/>
	<path class="st0" d="M159.9,11.3c-0.2-3.2,0.8-3.2,3.7-3.2V3h-3.8c-5.7,0-8.8,1.2-8.8,8.3h-3v4.6h3v15.6h9V16h3.7v-4.6h-3.8V11.3z"
		/>
	<path class="st0" d="M169.7,8.8h5.9l7.4-5.7h-9L169.7,8.8z M169.9,19.2c0-2.2,1.5-3.5,4.2-3.5c2.1,0,4,1.7,4,3.5H169.9z M187,23.2
		c0.1-7.3-4.9-12.5-13.3-12.5c-7.2,0-12.8,4.2-12.8,10.9c0,6.8,5.6,10.5,12.8,10.5c5.3,0,10.9-1.7,12.5-6.7h-8.6
		c-0.6,1.2-1.9,1.8-3.4,1.8c-2.4,0-4.4-1.6-4.4-4H187z"/>
	<path class="st1" d="M23.4,41.2l-1.1-2.4l-1.1,2.4H23.4z M21.8,38h1.1l2.6,5.4h-1l-0.8-1.6h-2.8l-0.8,1.6h-1L21.8,38z"/>
	<path class="st1" d="M27.1,41.7c0,0.3,0.1,0.6,0.3,0.7c0.3,0.4,0.9,0.5,1.7,0.5c0.4,0,0.7,0,1-0.1c0.6-0.2,0.9-0.4,0.9-0.8
		c0-0.3-0.1-0.5-0.4-0.6c-0.2-0.1-0.6-0.2-1.1-0.3l-1-0.2c-0.6-0.1-1.1-0.2-1.3-0.4c-0.4-0.2-0.7-0.6-0.7-1c0-0.5,0.2-0.9,0.7-1.2
		c0.4-0.3,1.1-0.5,1.9-0.5c0.7,0,1.4,0.1,1.9,0.4c0.5,0.3,0.8,0.7,0.8,1.3h-0.9c-0.1-0.3-0.2-0.5-0.3-0.7c-0.3-0.3-0.8-0.4-1.5-0.4
		c-0.6,0-1,0.1-1.2,0.3s-0.4,0.4-0.4,0.6c0,0.3,0.1,0.5,0.4,0.6c0.2,0.1,0.6,0.2,1.3,0.3l1,0.2c0.5,0.1,0.8,0.2,1.1,0.3
		c0.4,0.3,0.7,0.6,0.7,1.1c0,0.6-0.3,1-0.9,1.3c-0.6,0.3-1.2,0.4-2,0.4c-0.9,0-1.6-0.2-2.1-0.5s-0.7-0.8-0.7-1.4h0.8V41.7z"/>
	<path class="st1" d="M38.9,38.8c0.5,0.5,0.7,1.1,0.7,1.8c0,0.8-0.3,1.5-0.8,2c-0.6,0.6-1.5,0.9-2.7,0.9c-1.1,0-1.9-0.3-2.6-0.8
		c-0.6-0.5-0.8-1.2-0.8-2c0-0.7,0.2-1.4,0.7-1.9c0.6-0.7,1.5-1,2.7-1C37.4,37.8,38.3,38.2,38.9,38.8 M38.1,42.2
		c0.4-0.5,0.6-1,0.6-1.6s-0.2-1.1-0.7-1.5c-0.4-0.4-1-0.6-1.8-0.6c-0.7,0-1.3,0.2-1.8,0.6c-0.5,0.4-0.7,0.9-0.7,1.7
		c0,0.6,0.2,1.1,0.6,1.5c0.4,0.4,1,0.6,1.9,0.6C37.1,42.9,37.7,42.7,38.1,42.2"/>
	<path class="st1" d="M45.9,38.4c0.5,0.4,0.8,0.8,0.8,1.2h-0.9c-0.1-0.3-0.3-0.6-0.6-0.8s-0.8-0.3-1.3-0.3c-0.7,0-1.3,0.2-1.7,0.6
		c-0.4,0.4-0.6,0.9-0.6,1.7c0,0.6,0.2,1.1,0.6,1.5c0.4,0.4,1,0.6,1.7,0.6s1.2-0.2,1.6-0.6c0.2-0.2,0.3-0.5,0.4-0.9h0.9
		c-0.1,0.6-0.4,1-0.8,1.4c-0.6,0.5-1.3,0.7-2.3,0.7c-0.8,0-1.5-0.2-2.1-0.6c-0.7-0.5-1.1-1.3-1.1-2.3c0-0.8,0.3-1.4,0.8-2
		c0.6-0.6,1.4-0.8,2.5-0.8C44.7,37.8,45.4,38,45.9,38.4"/>
	<rect x="48.3" y="38" class="st1" width="1" height="5.4"/>
	<path class="st1" d="M54.5,41.2l-1-2.4l-1.2,2.4H54.5z M53,38h1.1l2.6,5.4h-1l-0.9-1.6H52l-0.7,1.6h-1L53,38z"/>
	<path class="st1" d="M62.6,38.4c0.5,0.4,0.8,0.8,0.8,1.2h-0.9c-0.1-0.3-0.3-0.6-0.6-0.8c-0.3-0.2-0.8-0.3-1.3-0.3
		c-0.7,0-1.3,0.2-1.7,0.6c-0.4,0.4-0.6,0.9-0.6,1.7c0,0.6,0.2,1.1,0.6,1.5s1,0.6,1.7,0.6s1.2-0.2,1.6-0.6c0.2-0.2,0.3-0.5,0.4-0.9
		h0.9c-0.1,0.6-0.4,1-0.8,1.4c-0.6,0.5-1.3,0.7-2.3,0.7c-0.8,0-1.5-0.2-2.1-0.6c-0.7-0.5-1.1-1.3-1.1-2.3c0-0.8,0.3-1.4,0.8-2
		c0.6-0.6,1.4-0.8,2.5-0.8C61.5,37.8,62.1,38,62.6,38.4"/>
	<rect x="65" y="38" class="st1" width="1" height="5.4"/>
	<path class="st1" d="M73.4,38.8c0.5,0.5,0.7,1.1,0.7,1.8c0,0.8-0.3,1.5-0.8,2c-0.6,0.6-1.5,0.9-2.7,0.9c-1.1,0-1.9-0.3-2.6-0.8
		c-0.6-0.5-0.8-1.2-0.8-2c0-0.7,0.2-1.4,0.7-1.9c0.6-0.7,1.5-1,2.7-1C71.9,37.8,72.8,38.2,73.4,38.8 M72.6,42.2
		c0.4-0.5,0.6-1,0.6-1.6s-0.2-1.1-0.7-1.5c-0.4-0.4-1-0.6-1.8-0.6c-0.7,0-1.3,0.2-1.8,0.6c-0.5,0.4-0.7,0.9-0.7,1.7
		c0,0.6,0.2,1.1,0.6,1.5s1,0.6,1.9,0.6C71.6,42.9,72.2,42.7,72.6,42.2"/>
	<polygon class="st1" points="75.4,38 76.5,38 80.1,42.4 80.1,38 81,38 81,43.4 79.9,43.4 76.3,39 76.3,43.4 75.4,43.4 	"/>
	<polygon class="st1" points="85.3,38 86.4,38 90,42.4 90,38 90.9,38 90.9,43.4 89.8,43.4 86.2,39 86.2,43.4 85.3,43.4 	"/>
	<path class="st1" d="M96.1,41.2L95,38.8l-1.1,2.4H96.1z M94.5,38h1.1l2.6,5.4h-1l-0.7-1.6h-2.8l-0.8,1.6h-1L94.5,38z"/>
	<path class="st1" d="M104.2,38.4c0.5,0.4,0.8,0.8,0.8,1.2h-0.9c-0.1-0.3-0.3-0.6-0.6-0.8c-0.3-0.2-0.8-0.3-1.3-0.3
		c-0.7,0-1.3,0.2-1.7,0.6c-0.4,0.4-0.6,0.9-0.6,1.7c0,0.6,0.2,1.1,0.6,1.5s1,0.6,1.7,0.6s1.2-0.2,1.6-0.6c0.2-0.2,0.3-0.5,0.4-0.9
		h0.9c-0.1,0.6-0.4,1-0.8,1.4c-0.6,0.5-1.3,0.7-2.3,0.7c-0.8,0-1.5-0.2-2.1-0.6c-0.7-0.5-1.1-1.3-1.1-2.3c0-0.8,0.3-1.4,0.8-2
		c0.6-0.6,1.4-0.8,2.5-0.8C103,37.8,103.7,38,104.2,38.4"/>
	<rect x="106.6" y="38" class="st1" width="1" height="5.4"/>
	<path class="st1" d="M115,38.8c0.5,0.5,0.7,1.1,0.7,1.8c0,0.8-0.3,1.5-0.8,2c-0.6,0.6-1.5,0.9-2.7,0.9c-1.1,0-1.9-0.3-2.6-0.8
		c-0.6-0.5-0.8-1.2-0.8-2c0-0.7,0.2-1.4,0.7-1.9c0.6-0.7,1.5-1,2.7-1C113.5,37.8,114.4,38.2,115,38.8 M114.2,42.2
		c0.4-0.5,0.6-1,0.6-1.6s-0.2-1.1-0.7-1.5c-0.4-0.4-1-0.6-1.8-0.6c-0.7,0-1.3,0.2-1.8,0.6c-0.5,0.4-0.7,0.9-0.7,1.7
		c0,0.6,0.2,1.1,0.6,1.5s1,0.6,1.9,0.6C113.2,42.9,113.8,42.7,114.2,42.2"/>
	<polygon class="st1" points="116.9,38 118.1,38 121.6,42.4 121.6,38 122.5,38 122.5,43.4 121.5,43.4 117.8,39 117.8,43.4 
		116.9,43.4 	"/>
	<path class="st1" d="M127.8,41.2l-1.1-2.4l-1.1,2.4H127.8z M126.2,38h1.1l2.6,5.4h-1l-0.7-1.6h-2.9l-0.8,1.6h-1L126.2,38z"/>
	<polygon class="st1" points="130.8,38 131.8,38 131.8,42.8 135.4,42.8 135.4,43.4 130.8,43.4 	"/>
	<path class="st1" d="M141.4,42.8c0.3,0,0.6,0,0.8-0.1c0.4-0.1,0.7-0.3,0.9-0.6c0.2-0.2,0.3-0.5,0.4-0.8c0-0.2,0.1-0.4,0.1-0.6
		c0-0.7-0.2-1.2-0.5-1.6c-0.3-0.4-0.9-0.6-1.7-0.6h-1.7v4.3H141.4z M138.7,38h2.9c1,0,1.7,0.3,2.3,0.8c0.5,0.5,0.7,1.1,0.7,1.8
		c0,0.6-0.1,1.1-0.4,1.6c-0.5,0.8-1.4,1.2-2.6,1.2h-2.9V38z"/>
	<polygon class="st1" points="146,38 151.1,38 151.1,38.7 146.9,38.7 146.9,40.3 150.8,40.3 150.8,40.9 146.9,40.9 146.9,42.8 
		151.2,42.8 151.2,43.4 146,43.4 	"/>
	<polygon class="st1" points="152.6,38 153.5,38 153.5,42.8 157.1,42.8 157.1,43.4 152.6,43.4 	"/>
	<path class="st1" d="M165.5,38.4c0.5,0.4,0.8,0.8,0.8,1.2h-0.9c-0.1-0.3-0.3-0.6-0.6-0.8s-0.8-0.3-1.3-0.3c-0.7,0-1.3,0.2-1.7,0.6
		c-0.4,0.4-0.6,0.9-0.6,1.7c0,0.6,0.2,1.1,0.6,1.5c0.4,0.4,1,0.6,1.7,0.6s1.2-0.2,1.6-0.6c0.2-0.2,0.3-0.5,0.4-0.9h0.9
		c-0.1,0.6-0.4,1-0.8,1.4c-0.6,0.5-1.3,0.7-2.3,0.7c-0.8,0-1.5-0.2-2.1-0.6c-0.7-0.5-1.1-1.3-1.1-2.3c0-0.8,0.3-1.4,0.8-2
		c0.6-0.6,1.4-0.8,2.5-0.8C164.3,37.8,165,38,165.5,38.4"/>
	<path class="st1" d="M171.3,41.2l-1.1-2.4l-1.1,2.4H171.3z M169.7,38h1.1l2.6,5.4h-1.1l-0.7-1.6h-2.8l-0.8,1.6h-1L169.7,38z"/>
	<polygon class="st1" points="174.4,38 179.3,38 179.3,38.7 175.4,38.7 175.4,40.3 178.8,40.3 178.8,40.9 175.4,40.9 175.4,43.4 
		174.4,43.4 	"/>
	<polygon class="st1" points="180.5,38 185.7,38 185.7,38.7 181.5,38.7 181.5,40.3 185.4,40.3 185.4,40.9 181.5,40.9 181.5,42.8 
		185.7,42.8 185.7,43.4 180.5,43.4 	"/>
	<path class="st1" d="M186.5,8.9c-0.5,0.5-0.8,1.1-0.8,1.9c0,0.7,0.3,1.4,0.8,1.9s1.1,0.8,1.9,0.8c0.7,0,1.4-0.3,1.9-0.8
		s0.8-1.2,0.8-1.9c0-0.7-0.3-1.3-0.8-1.9c-0.5-0.5-1.2-0.8-1.9-0.8C187.6,8.1,187,8.4,186.5,8.9 M190.6,13.1
		c-0.6,0.6-1.4,0.9-2.3,0.9c-0.9,0-1.7-0.3-2.3-0.9s-0.9-1.4-0.9-2.3s0.3-1.7,1-2.4c0.6-0.6,1.4-0.9,2.2-0.9c0.9,0,1.7,0.3,2.3,0.9
		s0.9,1.4,0.9,2.3C191.6,11.7,191.3,12.5,190.6,13.1 M188.7,9.7c-0.1-0.1-0.3-0.1-0.5-0.1H188v1h0.4c0.2,0,0.4,0,0.5-0.1
		s0.2-0.2,0.2-0.4C188.9,9.9,188.9,9.8,188.7,9.7 M186.9,12.6V9c0.2,0,0.6,0,1,0s0.7,0,0.7,0c0.3,0,0.5,0.1,0.7,0.2
		c0.3,0.2,0.5,0.5,0.5,0.9c0,0.3-0.1,0.5-0.3,0.7c-0.2,0.1-0.4,0.2-0.6,0.2c0.2,0,0.4,0.1,0.5,0.2c0.2,0.2,0.3,0.4,0.3,0.8v0.3v0.1
		v0.1v0.1h-0.9c0-0.1,0-0.3-0.1-0.5c0-0.2,0-0.4-0.1-0.4c0-0.1-0.1-0.2-0.3-0.3c-0.1,0-0.2,0-0.3-0.1h-0.2h-0.2v1.3
		C187.6,12.6,186.9,12.6,186.9,12.6z"/>
	<path class="st2" d="M26.8,28.1c8.3-4,12.8-16.2,22.6-17C43.2,12.5,36.2,27.7,26.8,28.1"/>
	<path class="st2" d="M13.2,25.6C24.3,26,36.5,10.9,49.3,11C37.6,12.5,23.9,27.8,13.2,25.6"/>
	<path class="st2" d="M0,24.1C16.7,23.8,38.1,7.9,49.4,11C36.9,9.8,13,26.8,0,24.1"/>
	<polygon class="st3" points="56.2,8.4 57,8.8 56.2,9 	"/>
	<path class="st2" d="M51.6,11.6c-1.3,0.1-2.3-0.1-2.5-0.7c-0.2-0.7,1.2-1.1,2.9-1.6c-0.9,0-1.7-0.2-2-0.8c-0.4-0.1-0.7-0.1-0.9-0.2
		c0.2-0.3,0.5-0.4,0.8-0.6c-0.6,0-2-0.9-2.1-1.6c0,0,3.2,1.5,3.6,1.6c0.3,0.1,0.5,0,0.7,0.1c0.5,0.1,0.8,0.7,1.1,1.3
		c0.4-0.1,0.7-0.2,1-0.2c0-0.6,0.5-1.1,1.1-1.1s1.1,0.5,1.1,1.1s-0.5,0.9-1.1,0.9c0,0.2-0.1,0.3-0.3,0.5c-0.3-0.1-0.7-0.2-1.1-0.2
		c-1.3,0-2.4,0.6-2.4,1.3L51.6,11.6z"/>
	<path class="st3" d="M51.8,11.3c0-0.6,0.9-1.1,2-1.1c0.3,0,0.7,0.1,0.9,0.2c-0.3,0.3-0.8,0.7-1.7,0.9c-0.4,0.1-0.8,0.2-1.2,0.2
		L51.8,11.3z"/>
</g>
</svg>
